<svg xmlns="http://www.w3.org/2000/svg" version="1.1" xmlns:xlink="http://www.w3.org/1999/xlink" xmlns:svgjs="http://svgjs.dev/svgjs" width="1000" height="1000" viewBox="0 0 1000 1000"><rect width="1000" height="1000" fill="#000000"></rect><g transform="matrix(0.7,0,0,0.7,150.00005140625,106.25)"><svg viewBox="0 0 320 360" data-background-color="#ffffff" preserveAspectRatio="xMidYMid meet" height="1125" width="1000" xmlns="http://www.w3.org/2000/svg" xmlns:xlink="http://www.w3.org/1999/xlink"><g id="tight-bounds" transform="matrix(1,0,0,1,0.000023499999997511622,0)"><svg viewBox="0 0 320 360" height="360" width="320"><g><svg></svg></g><g><svg viewBox="0 0 320 360" height="360" width="320"><g><path transform="translate(-74.99272,-51.79039) scale(4.65793,4.65793)" d="M20.6 59.9l0.8 1-0.4-1.3c-0.1-0.6-0.8 0.1-0.4 0.3M21.5 59.3c0.3 0.5 0.6 1 0.6 1.5 0 0.7 0.6 1 1.1 1.2-0.7-0.8-1.1-3-1.7-2.7M59.9 16.9c1.7 0 3.3-0.2 5.1 0.2 4.4 1.1 8.1 3.3 10.6 6.4l7 11.2c0.3 2.8 0.9 5.9 0.8 9.3 0.7 0 0.6-1 1.4-1.2-0.8 2-1.2 4.5-1.4 7.4-0.5-1.6 0-4 0.1-5.3-0.7 1.1-1.1 0.3-1.1-0.2 0.1-0.8-0.3-0.7-0.6-1-1.1-1-1.8-2.1-2.6-3.8 0.5-1.3 0.6-3.2-1-4.2-0.5-0.3-1.1-0.8-1.4-1.6-0.4-1.1-1.1-2.4-0.9-4.1 0.1-0.5-1.5 1.1-2.4 0.4-3.9-2.7-7.8-5.8-12.5-8.4-2.5 0-4.3-0.9-5.2-2-0.8-1-0.2-2.3 1-2.4 0.7 0 1.5-0.2 2.1 0.2 0.1-0.4 0.5-0.9 1-0.9M50 14.6l0.2 0.1c1 0.2 1.5 1.6 2.6 1.1 0 0.7 0.1 1.4-0.1 1.9-0.3 0.8-1.2 0.8-1.9 0.8-6.7-0.4-10.6 2.4-14.7 4.8-1.1 0.7-2.3 1.2-3.2 2.1-4.3 4-9 7.7-10.1 15.1l-0.9 8.2c-0.1 0.9-1.1 1.8-0.9 2.9l0.7 4.9c-0.7-0.7-1.1 0.2-0.9 0.6 0.1 0.3 0.5 1.3 1.1 0.4 0.8 1.5 1.6 4.4 2.7 5.7 3.4 4 7.8 7.6 11.4 11.2 0.9-0.2 1.6-0.2 1.8-0.8 0.3 0.6-0.3 1.2-0.8 1.3 1.6 1 3.4 1.9 5.8 2.1 3.1 0.2 6 0.7 8.7 1.4 1.4-0.4 2.8-0.6 4.3-0.7 0.5 0 0.8-0.8 1.4-1l0.1-1c0.6 0.9 0.5-0.3 0.1-0.9 0.7 0.6 0.9 1.1 1.2 1.5 0-0.3 0.8-1.4 0.8-0.1l0.2-1.3c0.3-0.2 0.4 1.1 0.7 0.2 0.3-0.9 0.9-0.2 1.5-0.5-0.2 0.4-0.1 1.2 0.6 0.7l0.8-0.7c0.5 1.2 1.3 0.7 1.7 0.5 4.4-2.8 8.8-6.1 13-9.4l-0.1 1.3 0.5-1.6c0.5 0.5 0.9 0.1 1.1-0.2 0.6-1 1.4-2 2.7-2.9-1.6 4.3-3.5 7.7-5.9 10.5l-1 1.2c0 0.7-0.2 1.6-1 1.7-0.4 0.1-1.2-0.2-1.8 0.4-0.3 0.4 0.7 1.2-0.1 0.6-0.7-0.5-1.4 0-2.2 0.2-0.6 0.2 0.4 0.8 0.6 1.2 0.2 0.4 0.4 0.8 0.3 1.3l-1.1-1.2c-1.3 0.7-2.1 2-3.2 3-0.5 0.4-0.3 1.1-0.3 1.7-0.7 0-1.5-0.2-1.9 0.2-0.3 0.4-0.2 1-0.2 1.6-1-0.1-1.1-1.6-2-1.3-0.9 0.2-1.9 0.3-2.7 0.8 0.6 1.2-1 0.5-0.8 0.7-1.5-0.9-2.8-1.6-4.4-1-3.4-1.1-7.6-0.6-10.7-0.2 0-0.5 0.1-1-0.1-1.1-0.2 0.5-0.8 0.3-0.7 0.3-1.9-1.3-3.8-2.1-5.8-3.2-1.8 0.2-3.5-0.7-4-1.2-1.4-1.3-3-0.6-4.3-0.9-2.8-0.7-3.8-3.6-4.1-5.6-0.2-1-1-1.4-1.3-1.3-1.3-4.2-3.3-8-4.9-11.9-0.4-1-0.3-2-0.3-3.1 0.5 0.2 1 0.1 0.9-0.6-0.5-3.3-1.7-5.8-3-8.2 0.7-3.4 0.8-7.4 2.4-10.4 1.4-2.7 4-4.1 5.8-6.4 0.6-0.8 0.6-1.9 1.2-2.6 2-2 4-4.1 6.2-5.9 1-0.8 2.2 0 3.7-0.3 0.5-1.8 2.5-3.4 4.4-2.9 0.8 0.2 2.4-1.9 2.9-2.1 0.8-0.3 0.4 0.8 0.4 1.5 1.9-1.5 4.5-2.3 6.9-3.2" fill="#000000" fill-rule="nonzero" stroke="none" stroke-width="1" stroke-linecap="butt" stroke-linejoin="miter" stroke-miterlimit="10" stroke-dasharray="" stroke-dashoffset="0" font-family="none" font-weight="none" font-size="none" text-anchor="none" style="mix-blend-mode: normal" data-fill-palette-color="tertiary"></path></g><g transform="matrix(1,0,0,1,67.47359342223092,90)"><svg viewBox="0 0 185.05281315553816 180" height="180" width="185.05281315553816"><g><svg viewBox="0 0 185.05281315553816 180" height="180" width="185.05281315553816"><g><svg viewBox="0 0 192 186.7574959314565" height="180" width="185.05281315553816"><g transform="matrix(1,0,0,1,0,138.99250205140754)"><svg viewBox="0 0 192 47.76499388004895" height="47.76499388004895" width="192"><g><svg viewBox="0 0 192 47.76499388004895" height="47.76499388004895" width="192"><g><svg viewBox="0 0 192 47.76499388004895" height="47.76499388004895" width="192"><g transform="matrix(1,0,0,1,0,0)"><svg width="192" viewBox="2.0999999999999996 -35 163.39000000000001 40.65" height="47.76499388004895" data-palette-color="#000000"><path d="M38.8 0L39.6 4.95Q37.15 5.65 35 5.65L35 5.65Q29.2 5.65 24.75 0.2L24.75 0.2Q22.65 0.65 20.4 0.65L20.4 0.65Q15.2 0.65 11.03-1.68 6.85-4 4.48-8.05 2.1-12.1 2.1-17.15L2.1-17.15Q2.1-22.2 4.48-26.28 6.85-30.35 11.05-32.68 15.25-35 20.4-35L20.4-35Q25.5-35 29.68-32.68 33.85-30.35 36.23-26.28 38.6-22.2 38.6-17.15L38.6-17.15Q38.6-12.35 36.4-8.38 34.2-4.4 30.35-2.1L30.35-2.1Q32.75 0.3 35.9 0.3L35.9 0.3Q37.7 0.3 38.8 0L38.8 0ZM20.35-29.8Q15.8-29.8 12.78-27.03 9.75-24.25 9-19.8L9-19.8 11.35-19.8Q16.1-19.8 19.33-17.88 22.55-15.95 25-10.9L25-10.9 26.6-7.7 27.1-6.7Q29.35-8.4 30.6-11.13 31.85-13.85 31.85-17.15L31.85-17.15Q31.85-20.75 30.43-23.63 29-26.5 26.4-28.15 23.8-29.8 20.35-29.8L20.35-29.8ZM20.35-4.55Q21.3-4.55 21.75-4.6L21.75-4.6 21.25-5.6 19.75-8.9Q18.1-12.25 16.35-13.63 14.6-15 11.35-15L11.35-15 8.95-15Q9.55-10.35 12.63-7.45 15.7-4.55 20.35-4.55L20.35-4.55ZM68.8-13.15L75.05-13.15 75.05 0 42.3 0 42.3-5.25 48.3-5.25 48.3-29.05 42.3-29.05 42.3-34.3 60.9-34.3 60.9-29.05 54.9-29.05 54.9-5.25 68.8-5.25 68.8-13.15ZM123.05-34.3L123.05-29.05 117.25-29.05 117.25 0.3 113.8 0.35 90.95-25.25 90.95-5.25 96.85-5.25 96.85 0 78.7 0 78.7-5.25 84.7-5.25 84.7-29.05 78.7-29.05 78.7-34.3 90.95-34.3 111.15-11.1 111.15-29.05 105.15-29.05 105.15-34.3 123.05-34.3ZM165.49-34.3L165.49-29.05 160.04-29.05 146.29 0.65 142.89 0.65 129.19-29.05 123.69-29.05 123.69-34.3 141.04-34.3 141.04-29.05 136.09-29.05 144.99-8.35 153.69-29.05 148.09-29.05 148.09-34.3 165.49-34.3Z" opacity="1" transform="matrix(1,0,0,1,0,0)" fill="#ffffff" class="undefined-text-0" data-fill-palette-color="primary" id="text-0"></path></svg></g></svg></g></svg></g></svg></g><g transform="matrix(1,0,0,1,39.92950967355335,0)"><svg viewBox="0 0 112.1409806528933 132.0224430844553" height="132.0224430844553" width="112.1409806528933"><g><svg xmlns="http://www.w3.org/2000/svg" xmlns:xlink="http://www.w3.org/1999/xlink" version="1.1" x="0" y="0" viewBox="15.177999999999997 9.005000000000008 69.643 81.98999999999998" enable-background="new 0 0 100 100" xml:space="preserve" height="132.0224430844553" width="112.1409806528933" class="icon-icon-0" data-fill-palette-color="accent" id="icon-0"><g fill="#fb0202" data-fill-palette-color="accent"><path fill="#ffffff" d="M50.504 15.3c0-0.534-0.434-0.968-0.968-0.968-6.723 0-12.192 5.469-12.192 12.191 0 0.482 0.042 1.015 0.132 1.674l0.507 3.72-3.701 0.625c-7.982 1.348-13.776 8.201-13.776 16.295 0 0.535 0.434 0.969 0.969 0.969 0.535 0 0.968-0.434 0.968-0.969 0-7.146 5.115-13.195 12.162-14.386l5.551-0.938-0.761-5.578c-0.078-0.57-0.114-1.02-0.114-1.412 0-5.654 4.6-10.255 10.255-10.255C50.07 16.269 50.504 15.835 50.504 15.3z" data-fill-palette-color="accent"></path><path fill="#ffffff" d="M62.945 65.861c12.062 0 21.876-9.813 21.876-21.877 0-10.737-7.781-19.828-18.268-21.567-1.874-7.832-8.869-13.412-17.018-13.412-9.66 0-17.519 7.859-17.519 17.519 0 0.335 0.012 0.677 0.037 1.035-9.857 2.293-16.875 11.034-16.875 21.278 0 12.063 9.814 21.878 21.877 21.878 3.491 0 6.86-0.832 9.882-2.367v11.136l-10.078 4.438c-0.825 0.363-1.405 1.137-1.594 2.121-0.153 0.803-0.037 1.701 0.328 2.529 0.648 1.472 1.919 2.423 3.239 2.423 0.366 0 0.718-0.074 1.047-0.219l8.163-3.595c0.987 1.3 2.526 2.086 4.222 2.086 1.695 0 3.234-0.786 4.222-2.086l8.161 3.594c0.33 0.146 0.683 0.22 1.049 0.22 0.001 0 0.001 0 0.001 0 1.319 0 2.59-0.951 3.238-2.423 0.364-0.828 0.48-1.726 0.327-2.528-0.188-0.985-0.769-1.759-1.594-2.122l-10.077-4.438v-14.31C59.338 65.621 61.135 65.861 62.945 65.861zM43.889 45.743c-0.907-0.907-2.105-1.427-3.288-1.427-0.988 0-1.896 0.363-2.557 1.024-0.758 0.758-1.123 1.849-1.002 2.992 0.11 1.045 0.608 2.059 1.403 2.854l8.493 8.491v5.34c-2.939 1.802-6.338 2.792-9.882 2.792-10.461 0-18.971-8.511-18.971-18.973 0-9.279 6.642-17.137 15.794-18.683l1.388-0.234-0.19-1.395c-0.105-0.771-0.154-1.406-0.154-2.002 0-8.057 6.556-14.613 14.613-14.613 7.094 0 13.139 5.07 14.373 12.056l0.188 1.063 1.073 0.126c9.547 1.117 16.745 9.212 16.745 18.829 0 10.461-8.51 18.972-18.972 18.972-1.815 0-3.617-0.277-5.352-0.793v-1.814l8.856-4.586c0.91-0.471 1.58-1.27 1.887-2.251 0.304-0.976 0.213-2.014-0.259-2.926C67.411 49.3 66.1 48.5 64.658 48.5c-0.604 0-1.209 0.147-1.747 0.426l-6.489 3.36c-0.99-1.248-2.5-2-4.156-2-1.057 0-2.073 0.316-2.936 0.896L43.889 45.743zM66.398 86.537c0.038 0.131 0.06 0.455-0.122 0.864-0.18 0.408-0.432 0.612-0.555 0.673l-9.262-4.079c-0.364-0.161-0.778-0.165-1.145-0.012-0.367 0.153-0.654 0.449-0.798 0.82-0.066 0.175-0.162 0.329-0.262 0.479-0.224 0.288-0.638 0.636-1.351 0.636-0.264 0-0.473-0.073-0.651-0.184-0.897-0.657-0.841-2.964-0.841-2.964v-1.614-2.34c0-2.901 0-8.003 0-12.388l0.018 0.028c0 0 0-3.583 0-5.792s1.601-3.352 1.601-3.352l3.353-1.753-0.002-0.002c0.052-0.02 0.104-0.034 0.153-0.06l7.712-3.992c0.446-0.233 1.018-0.032 1.25 0.416 0.118 0.226 0.141 0.483 0.065 0.722-0.073 0.235-0.232 0.426-0.448 0.537l-9.455 4.896c-0.043 0.017-0.095 0.037-0.12 0.05-0.519 0.235-0.852 0.752-0.852 1.321v21.059c0 0.715 0.588 1.328 1.292 1.441L66.398 86.537z" data-fill-palette-color="accent"></path></g></svg></g></svg></g><g></g></svg></g></svg></g></svg></g></svg></g><defs></defs></svg><rect width="320" height="360" fill="none" stroke="none" visibility="hidden"></rect></g></svg></g></svg>